<?xml version="1.0" encoding="UTF-8"?>
<!--?xml version="1.0" encoding="utf-8"?-->
<!-- Generator: Adobe Illustrator 27.6.1, SVG Export Plug-In . SVG Version: 6.00 Build 0)  -->
<svg width="1e3" height="472.38" version="1.1" viewBox="0 0 1e3 472.38" xml:space="preserve" xmlns="http://www.w3.org/2000/svg" xmlns:cc="http://creativecommons.org/ns#" xmlns:dc="http://purl.org/dc/elements/1.1/" xmlns:rdf="http://www.w3.org/1999/02/22-rdf-syntax-ns#"><title>Tyson Foods corporate logo (2024)</title>
<style type="text/css">
	.st0{fill:#E40B0E;}
	.st1{fill:#FED34C;}
	.st2{fill:#E10C10;}
	.st3{fill:#FFFFFF;}
</style><style media="screen"/>
<path class="st0" d="m481.45 472.38h-0.49c-249-0.14-403.57-90.72-403.5-236.38s154.62-236 403.26-236h0.47c120.06 0.07 220.79 21.3 291.3 61.39 73.45 41.75 112.25 102.28 112.25 174.99s-38.87 133.23-112.36 174.9c-70.5 39.98-171.09 61.1-290.93 61.1zm-0.71-439.95c-228.68 0-370.72 78-370.81 203.58s142.09 203.79 371.05 203.92h0.47c114.26 0 209.3-19.65 274.88-56.84 62.74-35.57 95.9-86.3 95.92-146.69s-33.08-111.17-95.79-146.82c-65.64-37.32-160.84-57.08-275.29-57.15z"/>
<path class="st1" d="m481.18 16.21c-238.92-0.11-387.41 84.1-387.5 219.79s148.34 220 387.29 220.15 387.46-84.06 387.5-219.77-148.31-220-387.29-220.17"/>
<path class="st2" d="m281.03 94.8h-0.05 0.06s-0.01-0.02-0.01 0z"/>
<path class="st0" d="m481.08 425.77h-1.7c-9.65-0.03-18.38-5.76-22.24-14.61-4.49 8.57-13.62 13.67-23.27 13l-1.69-0.12c-9.64-0.7-17.94-7.04-21.17-16.15-5.09 8.23-14.58 12.66-24.16 11.27l-1.69-0.25c-9.59-1.41-17.42-8.39-19.94-17.75-5.75 7.83-15.6 11.5-25.07 9.33l-1.63-0.38c-9.5-2.19-16.78-9.85-18.48-19.45-6.44 7.33-16.64 10.12-25.91 7.07l-1.66-0.55c-9.3-3.11-15.82-11.51-16.54-21.29-7.23 6.7-17.78 8.39-26.73 4.27l-1.56-0.78c-8.99-4.2-14.52-13.43-14-23.33-8.14 5.81-19 6.06-27.39 0.63l-1.46-0.95c-8.53-5.59-12.68-15.91-10.38-25.85-9.35 4.4-20.45 2.42-27.71-4.93l-1.33-1.37c-7.43-7.71-8.95-19.38-3.73-28.73-10.9 1.61-21.52-4.29-25.9-14.4-0.28-0.65-0.55-1.29-0.81-1.94-4.33-10.58-0.71-22.75 8.71-29.24-10.91-3.89-17.56-14.94-15.9-26.41 0.1-0.68 0.2-1.35 0.31-2 1.83-11.24 11.21-19.7 22.57-20.38-7.12-8.48-7.62-20.7-1.22-29.73l1.08-1.5c6.22-8.63 17.33-12.23 27.43-8.87-3.47-9.8-0.32-20.73 7.83-27.18l1.38-1.09c7.97-6.24 18.96-6.91 27.62-1.66-1.25-9.95 3.74-19.65 12.56-24.43l1.51-0.81c8.72-4.66 19.38-3.59 27 2.71 0.19-9.86 6.3-18.63 15.49-22.21l1.6-0.62c9.15-3.53 19.52-1.23 26.31 5.84 1.27-9.69 8.22-17.68 17.64-20.29l1.62-0.45c9.39-2.57 19.42 0.7 25.48 8.32 2.16-9.47 9.74-16.75 19.29-18.53l1.71-0.31c9.53-1.72 19.17 2.36 24.56 10.4 2.92-9.26 11.07-15.9 20.73-16.89l1.66-0.17c9.61-1 18.9 3.78 23.68 12.17 3.57-8.96 12.1-14.96 21.74-15.3l1.69-0.05c9.65-0.33 18.58 5.11 22.73 13.83 4.17-8.7 13.1-14.12 22.75-13.79l1.74 0.06c9.64 0.37 18.16 6.4 21.71 15.37 4.78-8.4 14.09-13.17 23.7-12.15l1.69 0.18c9.62 1.05 17.71 7.7 20.6 16.94 5.41-8.03 15.07-12.09 24.59-10.34l1.71 0.32c9.55 1.8 17.11 9.1 19.23 18.58 6.08-7.6 16.1-10.85 25.48-8.27l1.68 0.47c9.41 2.64 16.34 10.65 17.58 20.35 6.81-7.04 17.18-9.31 26.31-5.76l1.65 0.65c9.16 3.62 15.23 12.41 15.38 22.26 7.63-6.28 18.3-7.31 27-2.63l1.55 0.84c8.81 4.82 13.76 14.55 12.46 24.51 8.68-5.22 19.69-4.51 27.63 1.78l1.4 1.12c8.13 6.52 11.21 17.5 7.64 27.3 10.1-3.29 21.16 0.35 27.33 9 0.38 0.52 0.75 1.05 1.11 1.58 6.32 9.12 5.67 21.37-1.59 29.77 11.36 0.85 20.61 9.45 22.28 20.72 0.1 0.68 0.19 1.36 0.28 2 1.49 11.52-5.36 22.48-16.36 26.2 9.3 6.64 12.73 18.86 8.24 29.37-0.27 0.67-0.55 1.31-0.84 1.92-4.5 10.01-15.16 15.77-26 14.05 5.11 9.39 3.49 21.02-4 28.66l-1.28 1.3c-7.31 7.32-18.43 9.23-27.76 4.76 2.23 9.93-1.96 20.2-10.5 25.74l-1.49 1c-8.41 5.39-19.26 5.09-27.36-0.76 0.47 9.9-5.12 19.1-14.12 23.26l-1.62 0.74c-8.94 4.04-19.44 2.32-26.62-4.38-0.75 9.79-7.32 18.17-16.65 21.24l-1.6 0.52c-9.28 3.04-19.48 0.23-25.9-7.13-1.74 9.58-9.02 17.2-18.51 19.37l-1.65 0.38c-9.46 2.13-19.28-1.56-25-9.39-2.54 9.36-10.4 16.31-20 17.7l-1.69 0.24c-9.59 1.39-19.09-3.05-24.18-11.29-3.25 9.1-11.57 15.42-21.21 16.11l-1.73 0.11c-9.62 0.64-18.71-4.46-23.18-13-3.88 8.84-12.63 14.55-22.28 14.54h-0.28z"/>
<path class="st0" d="m962.94 233.85v-47.37c-17.74-6.54-29-10-43.34-10-19 0-32.2 5.51-40.89 13.57v-49.4l-13.66-14-57.54 13.35v37.45c-15.43 2.52-28 10.22-36.52 21.78-10.94-14.2-28.12-22.69-48.9-22.69-21 0-38.33 8.68-49.25 23.16-10.91-14.48-28.24-23.16-49.25-23.16-5.73-0.02-11.44 0.68-17 2.07v-49.33h-128.46v38.88l10.28 2.22c1.6 0.35 2.75 1.77 2.75 3.41v81.32c-0.01 1.9-1.53 3.45-3.43 3.48l-4.24 0.07c-1.93 0.03-3.51-1.51-3.54-3.44v-0.05-31.39c0-29.15-16.94-47.25-44.2-47.25-6.49-0.01-12.9 1.37-18.81 4.05l-5.55-5.69-51.16 12.21c-9.89-6.77-22.18-10.57-36.08-10.57-14.13 0-26.6 3.93-36.57 10.91-20.88-9.18-32.7-10.91-46.86-10.91-7.14-0.08-14.25 0.85-21.12 2.77h-70.69v-50h-148.91v66.45h44.11v59.91c0 1.65-1.16 3.07-2.78 3.41l-10.59 2.19v39h56.44v38.5c7.18 7 22.11 11.13 31.26 11.13 19.75 0 35.77-13.91 47.67-41.45l19.87-46.86v32.38c14.13 5.37 37 9.07 47.85 9.07 19.22 0 35-7.13 44.59-18.95 10.95 11.93 26.86 18.95 45.74 18.95 10.71 0.13 21.29-2.39 30.78-7.35v4.58h211v-36c8.6 23.66 29.94 38.77 57.66 38.77 21 0 38.34-8.68 49.25-23.17 10.89 14.52 28.24 23.15 49.24 23.15 19.75 0 36.26-7.68 47.23-20.64 12 18 32.71 21.14 42.95 21.14 8.12-0.03 16.13-1.85 23.47-5.33h39.19c11.55 3.41 23.51 5.2 35.55 5.34 35.93 0 57-20.53 57-49.19-0.03-8.4-1.74-15.1-4.54-20.48z"/>
<path class="st3" d="m863.19 267.01v-120l-3.15-3.23-37 8.58v11.49h7.88c2.76-0.13 5.1 2 5.23 4.76 0.01 0.16 0.01 0.31 0 0.47v27.13c-5.3-2.77-11.21-4.19-17.2-4.11-27.88 0-44.63 19-44.63 47.72s10.31 47.72 36.39 47.72c11.85 0 20.57-5.94 26.48-15.79v13h37.31v-10.7l-7.16-1.93c-2.5-0.36-4.31-2.58-4.15-5.11zm-27.06-9.85c-4.49 8.8-10.95 14.16-16.76 14.16-11.56 0-16.33-11.55-16.33-31.55 0-21.86 5.47-35.37 17-35.37 12 0 16.06 7.56 16.06 27.25z"/>
<path class="st3" d="m324.15 192.05c-27.89 0-46.29 19-46.29 47.72s18.4 47.72 46.29 47.72 46.29-19 46.29-47.72-18.4-47.72-46.29-47.72zm0 83.09c-12 0-17.55-13.51-17.55-35.37s5.53-35.39 17.55-35.39 17.59 13.53 17.59 35.39-5.57 35.37-17.59 35.37z"/>
<path class="st3" d="m722.09 192.05c-27.89 0-46.28 19-46.28 47.72s18.39 47.72 46.28 47.72 46.29-19 46.29-47.72-18.4-47.72-46.29-47.72zm0 83.09c-12 0-17.55-13.51-17.55-35.37s5.53-35.39 17.55-35.39 17.55 13.51 17.55 35.37-5.53 35.39-17.55 35.39z"/>
<path class="st3" d="m623.59 192.05c-27.88 0-46.28 19-46.28 47.72s18.4 47.72 46.28 47.72 46.29-19 46.29-47.72-18.4-47.72-46.29-47.72zm0 83.09c-12 0-17.55-13.51-17.55-35.37s5.54-35.39 17.55-35.39 17.56 13.51 17.56 35.37-5.54 35.39-17.56 35.39z"/>
<path class="st3" d="m224.89 214.87c0-5 4.88-8.74 13.47-8.74 4.38-0.08 8.74 0.66 12.85 2.18 1.35 0.57 2.4 1.67 2.89 3.05l4 11h10.48v-25.18c-8.4-3.19-15.2-5.13-27.83-5.13-28.3 0-39.24 14.39-39.24 30.9 0 36.82 46.65 21.43 46.65 40.64 0 6.74-6 9.54-14.48 9.54-5.6-0.06-11.07-1.67-15.81-4.66-1.13-0.71-1.96-1.83-2.3-3.12l-3.27-12.37h-10.82v29.26c5.9 1.68 19.2 5.25 32.34 5.25 25.93 0 39.24-15 39.24-33.16 0-37.12-48.17-20.95-48.17-39.46z"/>
<path class="st3" d="m903.74 214.87c0-5 4.88-8.74 13.47-8.74 4.38-0.08 8.74 0.66 12.85 2.18 1.35 0.57 2.4 1.67 2.89 3.05l4 11h10.48v-25.18c-8.4-3.19-15.2-5.13-27.83-5.13-28.3 0-39.24 14.39-39.24 30.9 0 36.82 46.65 21.43 46.65 40.64 0 6.74-6 9.54-14.48 9.54-5.59-0.06-11.06-1.67-15.79-4.66-1.13-0.71-1.96-1.83-2.3-3.12l-3.27-12.37h-10.81v29.26c5.9 1.68 19.2 5.25 32.33 5.25 25.94 0 39.25-15 39.25-33.16 0-37.12-48.2-20.95-48.2-39.46z"/>
<path class="st3" d="m55.5 271.95-9.25 1.93v10.84h56.42v-10.84l-9.25-1.93c-2.5-0.37-4.29-2.59-4.13-5.11v-102.84h23.62c2.52-0.17 4.74 1.62 5.11 4.12l2.61 12.1h12.77v-35.42h-117.88v35.42h12.76l2.62-12.1c0.37-2.5 2.59-4.29 5.11-4.12h23.61v102.84c0.17 2.52-1.62 4.74-4.12 5.11z"/>
<path class="st3" d="m591.04 180.22v-35.42h-97.39v10.84l8.9 1.93c2.5 0.37 4.29 2.59 4.13 5.11v104.16c0.16 2.52-1.63 4.74-4.13 5.11l-8.9 1.93v10.84h56.77v-10.84l-9.95-1.93c-2.5-0.37-4.29-2.59-4.13-5.11v-44.52h16.64c2.51-0.16 4.73 1.62 5.11 4.1l1.89 8.55h10.84v-40.14h-10.84l-1.89 8.55c-0.38 2.48-2.6 4.26-5.11 4.1h-16.64v-43.48h34.21c2.52-0.17 4.74 1.62 5.11 4.12l2.62 12.1z"/>
<path class="st3" d="m464.43 267.01v-43.23c0-22.35-12-31.73-28.68-31.73-10.76 0-19.41 5.51-26.17 13.25v-10l-3.15-3.24-36 8.59v11.48h6.83c2.76-0.13 5.1 2 5.23 4.76 0.01 0.16 0.01 0.31 0 0.47v49.8c0.16 2.49-1.6 4.7-4.07 5.1l-8 1.83v10.67h52.16v-10.71l-8.9-1.93c-2.5-0.37-4.29-2.59-4.13-5.11v-47.24c4.18-3.85 8.59-6.19 14.24-6.19 11.2 0 13.55 6.73 13.55 18.12v53h40.09v-10.65l-8.9-1.93c-2.48-0.38-4.26-2.6-4.1-5.11z"/>
<path class="st3" d="m162.91 205.49 5.81 1.1c3.66 0.69 4.66 3 3.06 7l-15 38-14.59-37.76c-1.31-3.39-0.81-6.11 3.08-7l5.86-1.34v-10.68h-50.83v10.68l6.93 1.8c1.74 0.29 3.18 1.51 3.75 3.18l30.94 78-4 10.15c-5.32 13.47-19.62 19.46-31.28 9.17l-4 1.26-0.12 20.74c4.4 3.21 9.5 4.58 15.91 4.58 10.77 0 22.76-6.91 33.38-32l39.12-92.25c0.59-1.62 2.01-2.8 3.71-3.07l6.52-1.56v-10.68h-38.25z"/>
<path class="st0" d="m973.13 188.61v-2.13h10.88v2.13h-4.17v10.64h-2.54v-10.64zm16.7-2.13 3.26 9.14 3.28-9.14h3.63v12.77h-2.34v-10.31l-3.53 10.31h-2.05l-3.56-10.31v10.31h-2.34v-12.77z"/>
<metadata><rdf:RDF><cc:Work rdf:about=""><dc:title>Tyson Foods corporate logo (2024)</dc:title></cc:Work></rdf:RDF></metadata></svg>
